<?xml version="1.0" encoding="UTF-8"?>
<svg xmlns="http://www.w3.org/2000/svg" version="1.1" viewBox="0 0 33 20">
  <defs>
    <style>
      .cls-1 {
        fill: #ec6727;
      }

      .cls-2 {
        fill: #0a68b1;
      }
    </style>
  </defs>
  <g>
    <g id="_Слой_1" data-name="Слой_1">
      <path class="cls-2" d="M22.01,17.77s0-.07-.02-.11c-.01-.03-.04-.06-.06-.09-.03-.03-.06-.05-.09-.06-.03-.01-.07-.02-.11-.02-4.92.14-9.86.08-14.75-.17-1.94-.12-3.88-1.88-4.09-3.7-.24-2.42-.24-4.85,0-7.27.2-1.82,2.15-3.58,4.08-3.7,4.89-.25,9.84-.31,14.75-.17.04,0,.07,0,.11-.02.03-.01.06-.03.09-.06.03-.03.05-.06.06-.09.01-.03.02-.07.02-.11V.35c0-.07-.03-.14-.08-.19-.05-.05-.12-.08-.19-.08C16.77-.07,11.78,0,6.84.25,3.72.43.8,3.11.47,6.1H.47c-.26,2.59-.26,5.2,0,7.78H.47c.33,3,3.25,5.68,6.37,5.87,3.21.17,6.43.25,9.66.25,1.75,0,3.49-.02,5.24-.07.07,0,.14-.03.19-.08.05-.05.08-.12.08-.19v-1.88Z"/>
      <path class="cls-1" d="M23.99,14.42c.84,0,1.53-.67,1.53-1.5s-.68-1.5-1.53-1.5-1.53.67-1.53,1.5.68,1.5,1.53,1.5"/>
      <path class="cls-1" d="M19.72,14.42c.84,0,1.53-.67,1.53-1.5s-.68-1.5-1.53-1.5-1.53.67-1.53,1.5.68,1.5,1.53,1.5"/>
      <path class="cls-1" d="M15.36,14.42c.84,0,1.53-.67,1.53-1.5s-.68-1.5-1.53-1.5-1.53.67-1.53,1.5.68,1.5,1.53,1.5"/>
      <path class="cls-2" d="M32.53,6.12h0c-.32-2.87-3-5.45-5.97-5.83-.04,0-.08,0-.12.01-.04.01-.07.03-.1.06-.03.03-.05.06-.07.09-.02.04-.02.07-.02.11v1.9c0,.06.02.13.06.18.04.05.1.08.16.09,1.78.33,3.45,1.96,3.64,3.64.24,2.42.24,4.85,0,7.27-.19,1.68-1.86,3.3-3.64,3.64-.06.01-.12.05-.16.09-.04.05-.06.11-.06.18v1.9s0,.08.02.11c.02.04.04.07.07.09.03.03.06.05.1.06.04.01.08.02.12.01,2.96-.37,5.65-2.95,5.97-5.82h0c.26-2.59.26-5.2,0-7.78"/>
    </g>
  </g>
</svg>
